<mxfile host="app.diagrams.net" modified="2020-05-07T14:09:40.943Z" agent="5.0 (Windows NT 10.0; Win64; x64) AppleWebKit/537.36 (KHTML, like Gecko) Chrome/81.0.4044.129 Safari/537.36" etag="muX3mT47EGLVpHbsshla" version="13.0.1" type="github">
  <diagram id="fsw8YmZYyZcyCVNrBCho" name="Page-1">
    <mxGraphModel dx="1146" dy="526" grid="1" gridSize="10" guides="1" tooltips="1" connect="1" arrows="1" fold="1" page="1" pageScale="1" pageWidth="827" pageHeight="1169" math="0" shadow="0">
      <root>
        <mxCell id="0" />
        <mxCell id="1" parent="0" />
        <mxCell id="_Y7mNaljkjLK2Z3gieaw-6" style="edgeStyle=orthogonalEdgeStyle;rounded=0;orthogonalLoop=1;jettySize=auto;html=1;exitX=1;exitY=0.5;exitDx=0;exitDy=0;entryX=0;entryY=0.5;entryDx=0;entryDy=0;" edge="1" parent="1" source="_Y7mNaljkjLK2Z3gieaw-1" target="_Y7mNaljkjLK2Z3gieaw-5">
          <mxGeometry relative="1" as="geometry" />
        </mxCell>
        <mxCell id="_Y7mNaljkjLK2Z3gieaw-1" value="&lt;span&gt;&lt;font color=&quot;#b5739d&quot;&gt;（如果有）&lt;/font&gt;&lt;/span&gt;&lt;font color=&quot;#b5739d&quot;&gt;&lt;br&gt;通过@RunWith&lt;br&gt;指定的Runner&lt;br&gt;运行测试类&lt;br&gt;&lt;/font&gt;" style="rounded=0;whiteSpace=wrap;html=1;fillColor=none;strokeColor=#000000;" vertex="1" parent="1">
          <mxGeometry x="40" y="200" width="120" height="80" as="geometry" />
        </mxCell>
        <mxCell id="_Y7mNaljkjLK2Z3gieaw-8" style="edgeStyle=orthogonalEdgeStyle;rounded=0;orthogonalLoop=1;jettySize=auto;html=1;exitX=1;exitY=0.5;exitDx=0;exitDy=0;entryX=0;entryY=0.5;entryDx=0;entryDy=0;" edge="1" parent="1" source="_Y7mNaljkjLK2Z3gieaw-5" target="_Y7mNaljkjLK2Z3gieaw-7">
          <mxGeometry relative="1" as="geometry" />
        </mxCell>
        <mxCell id="_Y7mNaljkjLK2Z3gieaw-5" value="&lt;font color=&quot;#b5739d&quot;&gt;（如果有）&lt;br&gt;通过@ClassRule&lt;br&gt;指定的所有Rule&lt;br&gt;运行测试类&lt;br&gt;&lt;/font&gt;" style="rounded=0;whiteSpace=wrap;html=1;fillColor=none;strokeColor=#000000;" vertex="1" parent="1">
          <mxGeometry x="200" y="200" width="120" height="80" as="geometry" />
        </mxCell>
        <mxCell id="_Y7mNaljkjLK2Z3gieaw-12" style="edgeStyle=orthogonalEdgeStyle;rounded=0;orthogonalLoop=1;jettySize=auto;html=1;exitX=1;exitY=0.5;exitDx=0;exitDy=0;entryX=0;entryY=0.5;entryDx=0;entryDy=0;" edge="1" parent="1" source="_Y7mNaljkjLK2Z3gieaw-7" target="_Y7mNaljkjLK2Z3gieaw-10">
          <mxGeometry relative="1" as="geometry" />
        </mxCell>
        <mxCell id="_Y7mNaljkjLK2Z3gieaw-7" value="（如果有）&lt;br&gt;执行@BeforeClass&lt;br&gt;指定的方法&lt;br&gt;测试类的准备任务" style="rounded=0;whiteSpace=wrap;html=1;fillColor=none;strokeColor=#000000;" vertex="1" parent="1">
          <mxGeometry x="360" y="200" width="120" height="80" as="geometry" />
        </mxCell>
        <mxCell id="_Y7mNaljkjLK2Z3gieaw-9" style="edgeStyle=orthogonalEdgeStyle;rounded=0;orthogonalLoop=1;jettySize=auto;html=1;exitX=1;exitY=0.5;exitDx=0;exitDy=0;entryX=0;entryY=0.5;entryDx=0;entryDy=0;" edge="1" source="_Y7mNaljkjLK2Z3gieaw-10" target="_Y7mNaljkjLK2Z3gieaw-11" parent="1">
          <mxGeometry relative="1" as="geometry" />
        </mxCell>
        <mxCell id="_Y7mNaljkjLK2Z3gieaw-10" value="&lt;font color=&quot;#b5739d&quot;&gt;（如果有）&lt;br&gt;通过@Rule&lt;br&gt;指定的所有Rule&lt;br&gt;运行所有测试方法&lt;br&gt;&lt;/font&gt;" style="rounded=0;whiteSpace=wrap;html=1;fillColor=none;strokeColor=#000000;" vertex="1" parent="1">
          <mxGeometry x="520" y="200" width="120" height="80" as="geometry" />
        </mxCell>
        <mxCell id="_Y7mNaljkjLK2Z3gieaw-14" style="edgeStyle=orthogonalEdgeStyle;rounded=0;orthogonalLoop=1;jettySize=auto;html=1;exitX=1;exitY=0.5;exitDx=0;exitDy=0;entryX=0;entryY=0.5;entryDx=0;entryDy=0;" edge="1" parent="1" source="_Y7mNaljkjLK2Z3gieaw-11" target="_Y7mNaljkjLK2Z3gieaw-13">
          <mxGeometry relative="1" as="geometry" />
        </mxCell>
        <mxCell id="_Y7mNaljkjLK2Z3gieaw-11" value="（如果有）&lt;br&gt;执行@Before&lt;br&gt;指定的方法&lt;br&gt;测试方法的准备任务" style="rounded=0;whiteSpace=wrap;html=1;fillColor=none;strokeColor=#000000;" vertex="1" parent="1">
          <mxGeometry x="680" y="200" width="120" height="80" as="geometry" />
        </mxCell>
        <mxCell id="_Y7mNaljkjLK2Z3gieaw-20" style="edgeStyle=orthogonalEdgeStyle;rounded=0;orthogonalLoop=1;jettySize=auto;html=1;exitX=1;exitY=0.5;exitDx=0;exitDy=0;entryX=0;entryY=0.5;entryDx=0;entryDy=0;" edge="1" parent="1" source="_Y7mNaljkjLK2Z3gieaw-13" target="_Y7mNaljkjLK2Z3gieaw-16">
          <mxGeometry relative="1" as="geometry" />
        </mxCell>
        <mxCell id="_Y7mNaljkjLK2Z3gieaw-13" value="&lt;b&gt;执行@Test&lt;br&gt;指定的测试方法&lt;/b&gt;" style="rounded=0;whiteSpace=wrap;html=1;fillColor=none;strokeColor=#000000;" vertex="1" parent="1">
          <mxGeometry x="840" y="200" width="120" height="80" as="geometry" />
        </mxCell>
        <mxCell id="_Y7mNaljkjLK2Z3gieaw-22" style="edgeStyle=orthogonalEdgeStyle;rounded=0;orthogonalLoop=1;jettySize=auto;html=1;exitX=1;exitY=0.5;exitDx=0;exitDy=0;entryX=0;entryY=0.5;entryDx=0;entryDy=0;" edge="1" parent="1" source="_Y7mNaljkjLK2Z3gieaw-16" target="_Y7mNaljkjLK2Z3gieaw-21">
          <mxGeometry relative="1" as="geometry" />
        </mxCell>
        <mxCell id="_Y7mNaljkjLK2Z3gieaw-16" value="（如果有）&lt;br&gt;执行@After&lt;br&gt;指定的方法&lt;br&gt;测试方法的结束任务" style="rounded=0;whiteSpace=wrap;html=1;fillColor=none;strokeColor=#000000;" vertex="1" parent="1">
          <mxGeometry x="1000" y="200" width="120" height="80" as="geometry" />
        </mxCell>
        <mxCell id="_Y7mNaljkjLK2Z3gieaw-21" value="（如果有）&lt;br&gt;执行@AfterClass&lt;br&gt;指定的方法&lt;br&gt;测试类的结束任务" style="rounded=0;whiteSpace=wrap;html=1;fillColor=none;strokeColor=#000000;" vertex="1" parent="1">
          <mxGeometry x="1160" y="200" width="120" height="80" as="geometry" />
        </mxCell>
      </root>
    </mxGraphModel>
  </diagram>
</mxfile>
